<svg xmlns="http://www.w3.org/2000/svg" version="1.1" xmlns:xlink="http://www.w3.org/1999/xlink" xmlns:svgjs="http://svgjs.com/svgjs" width="1000" height="1000"><style>
    #light-icon {
      display: inline;
    }
    #dark-icon {
      display: none;
    }

    @media (prefers-color-scheme: dark) {
      #light-icon {
        display: none;
      }
      #dark-icon {
        display: inline;
      }
    }
  </style><g id="light-icon"><svg xmlns="http://www.w3.org/2000/svg" version="1.1" xmlns:xlink="http://www.w3.org/1999/xlink" xmlns:svgjs="http://svgjs.com/svgjs" width="1000" height="1000"><rect width="1000" height="1000" rx="300" ry="300" fill="#757575"></rect><g transform="matrix(29.032258064516128,0,0,29.032258064516128,64.77150217179332,57.84343744093371)"><svg xmlns="http://www.w3.org/2000/svg" version="1.1" xmlns:xlink="http://www.w3.org/1999/xlink" xmlns:svgjs="http://svgjs.com/svgjs" width="30" height="31"><svg width="30" height="31" viewBox="0 0 30 31" fill="none" xmlns="http://www.w3.org/2000/svg">
<path d="M16.7805 11.2142C16.7754 11.2169 16.7701 11.2198 16.765 11.2228C16.7615 11.2248 16.7582 11.2266 16.7546 11.2287C16.5305 11.3565 16.3165 11.4997 16.1141 11.6567C15.6861 11.9875 15.3092 12.3802 14.9963 12.8209C14.6805 12.3755 14.2988 11.9793 13.8654 11.6464C13.6859 11.5079 13.4971 11.3807 13.3006 11.2652C13.2988 11.264 13.297 11.2628 13.2953 11.262C13.2641 11.2434 13.2326 11.2254 13.2012 11.2081L13.9886 9.79462L14.9886 8L15.9877 9.79197L16.7805 11.2142Z" fill="white"></path>
<path d="M13.2955 11.2619C13.2637 11.2439 13.232 11.2266 13.2002 11.2101L13.2014 11.208C13.2328 11.2254 13.2643 11.2434 13.2955 11.2619Z" fill="white"></path>
<path d="M16.7803 11.2142C16.7753 11.2172 16.7701 11.22 16.7651 11.223C16.7701 11.22 16.7753 11.2169 16.7803 11.2142Z" fill="white"></path>
<path d="M17.7146 21.1168L17.0649 22.4404C16.3015 22.1629 15.5998 21.7581 14.986 21.252C14.3743 21.7566 13.675 22.1608 12.9143 22.438L12.2666 21.1183C12.2915 21.11 12.3165 21.1015 12.3411 21.0926C12.3548 21.0879 12.3684 21.0829 12.3818 21.0779C12.4067 21.0691 12.4313 21.0599 12.456 21.0505C12.4794 21.042 12.5029 21.0328 12.526 21.0237C12.5854 21.0004 12.6444 20.976 12.7026 20.9507C12.7273 20.94 12.7516 20.9291 12.7759 20.9182C12.7825 20.9153 12.789 20.9124 12.7952 20.9094C12.8211 20.8979 12.8466 20.8858 12.8721 20.8738C12.9573 20.8334 13.041 20.791 13.1235 20.7462C13.1425 20.7362 13.1612 20.7259 13.1799 20.7153C13.1998 20.7047 13.2194 20.6935 13.2387 20.6823C13.2479 20.6773 13.2568 20.6723 13.2657 20.667C13.2983 20.6481 13.3304 20.629 13.3624 20.6095C13.3948 20.5901 13.4271 20.57 13.4589 20.5497C13.4637 20.5468 13.4681 20.5438 13.4726 20.5409C13.5014 20.5226 13.5301 20.5041 13.5583 20.4849C13.5622 20.4826 13.5658 20.4802 13.5693 20.4778C13.6011 20.4566 13.6325 20.4351 13.6637 20.413C13.6967 20.3903 13.729 20.3671 13.7611 20.3435C13.7925 20.3205 13.824 20.297 13.8549 20.2731C13.8566 20.2719 13.8584 20.2704 13.8602 20.269C13.8908 20.2457 13.921 20.2221 13.951 20.198C13.984 20.1718 14.0166 20.145 14.0487 20.1179C14.0736 20.0969 14.0982 20.076 14.1226 20.0545C14.1345 20.0442 14.1463 20.0339 14.1582 20.0233C14.1858 19.9991 14.2128 19.9744 14.2398 19.9499C14.2404 19.9491 14.241 19.9485 14.2416 19.9482C14.2707 19.9214 14.2995 19.8943 14.328 19.8666C14.3321 19.8627 14.3363 19.8589 14.3402 19.8548C14.3689 19.8271 14.3974 19.7991 14.4253 19.7705C14.4538 19.742 14.4817 19.7128 14.5093 19.6836C14.5153 19.6774 14.5209 19.6716 14.5266 19.6654C14.5485 19.6421 14.5699 19.6188 14.5913 19.595C14.5966 19.5894 14.6019 19.5835 14.6067 19.5776C14.6334 19.5484 14.6592 19.519 14.6848 19.4892C14.6848 19.4889 14.6851 19.4886 14.6853 19.4883C14.7952 19.3608 14.8991 19.2279 14.9964 19.0903C15.1083 19.2485 15.2294 19.4008 15.3576 19.5461C15.3579 19.5464 15.3579 19.5464 15.3582 19.5466C15.3838 19.5755 15.4099 19.6044 15.436 19.6327C15.4591 19.6577 15.4826 19.6827 15.5063 19.7075C15.5123 19.714 15.5182 19.7202 15.5244 19.7263C15.5452 19.7479 15.566 19.7691 15.5871 19.79C15.62 19.8233 15.6536 19.856 15.6877 19.8884C15.7091 19.909 15.731 19.9293 15.753 19.9496C15.8177 20.0092 15.8842 20.0675 15.9519 20.124C15.9756 20.1441 15.9996 20.1638 16.024 20.1833C16.0258 20.1847 16.0275 20.1862 16.0293 20.1877C16.0311 20.1891 16.0332 20.1906 16.035 20.1921C16.0638 20.2154 16.0931 20.2383 16.1225 20.261C16.1486 20.2813 16.1754 20.3014 16.2021 20.3214C16.2136 20.33 16.2252 20.3382 16.2368 20.3467C16.2561 20.3612 16.2754 20.375 16.295 20.3889C16.3051 20.3959 16.3155 20.4033 16.3261 20.4107C16.3543 20.4307 16.3828 20.4501 16.4116 20.4693C16.4446 20.4917 16.4775 20.5135 16.5111 20.5347C16.5443 20.5562 16.5778 20.5774 16.6117 20.5977C16.6411 20.616 16.6707 20.6337 16.7004 20.6508C16.7073 20.6549 16.7138 20.6587 16.7203 20.6625C16.7527 20.6814 16.785 20.7 16.818 20.7179C16.8355 20.7276 16.853 20.7371 16.8705 20.7465C16.8782 20.7509 16.8862 20.755 16.8942 20.7595C16.9126 20.7692 16.9311 20.7789 16.9495 20.7883C16.9987 20.814 17.0486 20.8387 17.0988 20.8629C17.1109 20.8688 17.1228 20.8746 17.135 20.8802C17.1551 20.8897 17.1753 20.8988 17.1955 20.9082C17.2222 20.9206 17.2492 20.9327 17.2762 20.9445C17.2771 20.9445 17.2777 20.9448 17.2783 20.9453C17.3047 20.9568 17.3312 20.968 17.3576 20.9792C17.3763 20.9866 17.3947 20.9942 17.4134 21.0019C17.4321 21.0096 17.4505 21.0169 17.4692 21.024C17.4882 21.0317 17.5075 21.039 17.5268 21.0464C17.5502 21.0552 17.5734 21.0641 17.5968 21.0726C17.6108 21.0776 17.625 21.0826 17.6393 21.0876C17.6583 21.0944 17.6775 21.1012 17.6965 21.1077C17.6968 21.108 17.6968 21.108 17.6971 21.108C17.7078 21.1136 17.7138 21.1162 17.7146 21.1168Z" fill="white"></path>
<path d="M13.296 11.2619C13.2642 11.2439 13.2324 11.2266 13.2007 11.2101L13.2019 11.208C13.2333 11.2254 13.2648 11.2434 13.296 11.2619Z" fill="white"></path>
<path d="M16.7808 11.2142C16.7758 11.2172 16.7706 11.22 16.7656 11.223C16.7706 11.22 16.7758 11.2169 16.7808 11.2142Z" fill="white"></path>
<path d="M23.2103 16.2139V16.226C23.2103 16.2466 23.2097 16.2672 23.2094 16.2878C23.2091 16.3064 23.2085 16.3244 23.2079 16.3426C23.207 16.3697 23.2058 16.3966 23.2047 16.4234C23.2026 16.4605 23.1996 16.4976 23.1966 16.535C23.1949 16.5565 23.1928 16.5786 23.1904 16.6001C23.1839 16.6643 23.1756 16.728 23.1655 16.791C23.1634 16.806 23.161 16.8208 23.1581 16.8355C23.1542 16.8608 23.1492 16.8856 23.1444 16.9103C23.1388 16.9404 23.1328 16.9704 23.1263 17.0002C23.115 17.0517 23.1026 17.1033 23.0892 17.1542C23.0824 17.1799 23.0755 17.2049 23.0681 17.2302C23.061 17.2556 23.0533 17.2806 23.0456 17.3059C23.0378 17.3307 23.0298 17.3554 23.0215 17.3805C23.0162 17.3967 23.0105 17.4129 23.0049 17.4288C23.0004 17.442 22.9957 17.4553 22.9907 17.4686C22.9586 17.5578 22.923 17.645 22.8838 17.7301C22.8776 17.7446 22.8707 17.7596 22.8636 17.7737C22.8577 17.787 22.8512 17.8003 22.8449 17.8135C22.8366 17.8303 22.8286 17.8468 22.8206 17.8627C22.814 17.8757 22.8078 17.8886 22.8007 17.9016C22.7927 17.9172 22.7847 17.9328 22.7764 17.9481C22.7689 17.962 22.7612 17.9755 22.7535 17.9888C22.744 18.0068 22.7339 18.0244 22.7238 18.0421C22.6535 18.1647 22.5766 18.2819 22.4932 18.3947C22.4837 18.4077 22.4745 18.4201 22.465 18.4324C22.4228 18.4875 22.3798 18.5417 22.335 18.5942C22.3219 18.6092 22.3089 18.6245 22.2955 18.6392C22.2875 18.649 22.2792 18.6581 22.2709 18.6669C22.2566 18.6828 22.2421 18.6985 22.2278 18.7141C22.1643 18.7827 22.0987 18.8484 22.0305 18.9111C22.0132 18.9271 21.996 18.9427 21.9788 18.958C21.9616 18.9736 21.9438 18.9889 21.926 19.0039C21.9079 19.0201 21.8898 19.0352 21.8711 19.0499C21.8562 19.0626 21.8414 19.0749 21.8262 19.0864C21.7924 19.1138 21.7586 19.14 21.7238 19.1657C21.7034 19.1813 21.6823 19.1966 21.6615 19.2113C21.6182 19.2423 21.5743 19.2723 21.5294 19.3015C21.5092 19.3141 21.4888 19.3271 21.4683 19.3398C21.4463 19.3539 21.4244 19.3672 21.4021 19.3804C21.3935 19.3854 21.3849 19.3904 21.376 19.3954C21.3623 19.4034 21.3487 19.4114 21.335 19.419C21.3315 19.4211 21.3282 19.4228 21.3246 19.4249C21.2831 19.4485 21.2409 19.4709 21.1979 19.4927C21.175 19.5047 21.1516 19.5165 21.1281 19.5277C21.1047 19.5389 21.0815 19.5501 21.0575 19.5607C21.0346 19.5716 21.0112 19.5819 20.9874 19.5925C20.8877 19.6358 20.7859 19.6744 20.6817 19.7095C20.6607 19.7165 20.6393 19.7233 20.6179 19.7298C20.593 19.7378 20.5675 19.7454 20.5422 19.7525C20.5167 19.7601 20.4915 19.7675 20.4659 19.7743C20.4366 19.7817 20.4072 19.7893 20.3772 19.7967C20.3567 19.8014 20.3356 19.8061 20.3143 19.8111C20.2965 19.8146 20.2787 19.8188 20.2611 19.8223C20.2421 19.8261 20.2231 19.8303 20.2039 19.8335C20.1982 19.8347 20.192 19.8359 20.1863 19.8367C20.1706 19.84 20.1546 19.8426 20.1389 19.8456C20.1172 19.8491 20.0955 19.8526 20.0739 19.8559C20.0471 19.8603 20.021 19.8638 19.9943 19.8674C19.9465 19.8736 19.8975 19.8792 19.8492 19.8836C19.829 19.8853 19.8088 19.8871 19.7886 19.8883C19.7658 19.8904 19.7426 19.8918 19.7195 19.893C19.6963 19.8942 19.6734 19.8954 19.65 19.8962C19.6257 19.8974 19.6013 19.8983 19.5767 19.8986C19.552 19.8992 19.5271 19.8995 19.5019 19.8995H19.5007C19.4722 19.8995 19.444 19.8992 19.4152 19.8983C19.3897 19.898 19.3645 19.8965 19.3389 19.8954C19.3188 19.8948 19.2986 19.8936 19.2784 19.8918C19.2499 19.8904 19.2214 19.8883 19.1926 19.8853C19.1816 19.8848 19.1703 19.8836 19.1597 19.8827C19.1585 19.8827 19.1576 19.8824 19.1564 19.8824C19.1282 19.8795 19.1003 19.8762 19.0724 19.873C19.0531 19.8706 19.0338 19.8683 19.0142 19.8653C18.9905 19.8624 18.967 19.8585 18.9439 19.855C18.8967 19.8473 18.8498 19.8394 18.8035 19.8303C18.7821 19.8261 18.761 19.8217 18.7397 19.817C18.7311 19.8155 18.7227 19.8135 18.7138 19.8114C18.6788 19.8037 18.6441 19.7958 18.6094 19.787C18.6034 19.7855 18.5975 19.784 18.5916 19.7822C18.5717 19.7775 18.5521 19.7725 18.5325 19.7669C18.523 19.7646 18.5132 19.7619 18.5037 19.7593C18.4823 19.7537 18.461 19.7475 18.4396 19.741C18.401 19.7298 18.3624 19.718 18.3241 19.7054C18.3137 19.7021 18.3028 19.6989 18.2924 19.6953C18.2808 19.6912 18.2689 19.6877 18.2573 19.6833C18.2354 19.6756 18.2134 19.6682 18.1914 19.6606C18.1472 19.6444 18.1027 19.6282 18.0594 19.6108C18.0445 19.6049 18.0297 19.5993 18.0148 19.5931C18.0086 19.5908 18.0024 19.5884 17.9964 19.5858C17.9754 19.5772 17.9549 19.5684 17.9338 19.5595C17.9133 19.5513 17.8926 19.5424 17.8721 19.5333C17.8516 19.5239 17.8308 19.5148 17.8103 19.5056C17.7694 19.4871 17.729 19.4685 17.6886 19.4485C17.6483 19.429 17.6082 19.409 17.5687 19.3887C17.3458 19.2741 17.1324 19.1456 16.9306 19.0107C16.8947 18.9866 16.859 18.9621 16.824 18.9377C16.8074 18.9262 16.7911 18.9147 16.775 18.9032C16.7092 18.8564 16.6447 18.8092 16.5818 18.7615C16.5791 18.7594 16.5762 18.7574 16.5732 18.755C16.51 18.7073 16.4483 18.659 16.3883 18.6101C16.3797 18.6036 16.3714 18.5968 16.3628 18.5898C16.3399 18.5712 16.3174 18.5523 16.2951 18.5341C16.2705 18.5137 16.2461 18.4937 16.2224 18.4731C16.2084 18.4613 16.1945 18.4495 16.1805 18.4375C16.1752 18.433 16.1698 18.4283 16.1648 18.4239C16.158 18.4183 16.1514 18.4124 16.1449 18.4068C16.1381 18.3992 16.1313 18.3915 16.1247 18.3835C15.9879 18.2639 15.895 18.0957 15.873 17.906C15.8718 17.8933 15.8707 17.8807 15.8701 17.868C15.8689 17.8521 15.8683 17.8362 15.8683 17.8203C15.8683 17.6671 15.9146 17.5248 15.9938 17.4064C16.0069 17.3867 16.0211 17.3675 16.0366 17.349C16.1746 17.1793 16.3865 17.0706 16.6237 17.0706C16.8092 17.0706 16.979 17.1368 17.1104 17.2476C17.1137 17.2503 17.1167 17.2529 17.1199 17.2556C17.1268 17.2594 17.1336 17.2644 17.1404 17.2688C17.1968 17.3133 17.2523 17.356 17.3066 17.397C17.3242 17.4099 17.3414 17.4229 17.3586 17.4356C17.4432 17.498 17.5251 17.5563 17.6043 17.6105C17.6607 17.6488 17.716 17.6854 17.7697 17.7201C17.7988 17.739 17.8279 17.757 17.856 17.7746C17.8842 17.7923 17.9124 17.8094 17.9397 17.8259H17.9403C17.9579 17.8371 17.9757 17.8474 17.9935 17.8574C18.0113 17.868 18.0291 17.8783 18.0463 17.888C18.0516 17.8913 18.0567 17.8942 18.062 17.8972C18.1089 17.9237 18.1543 17.9487 18.1989 17.972C18.2155 17.9808 18.2318 17.9891 18.2475 17.9976C18.2624 18.0053 18.2775 18.013 18.2921 18.02C18.2933 18.0209 18.2947 18.0218 18.2959 18.0221C18.3117 18.03 18.3274 18.038 18.3431 18.0454C18.3589 18.053 18.3743 18.0604 18.3891 18.0672C18.4197 18.0822 18.4497 18.0957 18.4791 18.109C18.5084 18.1222 18.5372 18.1346 18.5654 18.1461C18.5797 18.1523 18.5936 18.1579 18.607 18.1629C18.6159 18.1667 18.6245 18.1703 18.6328 18.1735C18.6379 18.1756 18.6432 18.1776 18.6482 18.1794C18.6634 18.1859 18.6788 18.1915 18.6937 18.1971C18.7138 18.2047 18.7337 18.2118 18.753 18.2186C18.7821 18.2289 18.8103 18.2386 18.8376 18.2474C18.8525 18.2527 18.8679 18.2578 18.8845 18.2619C18.9115 18.2707 18.9394 18.2784 18.9658 18.2852C19.0231 18.3008 19.0757 18.3131 19.1237 18.3229C19.1258 18.3232 19.1276 18.3234 19.1294 18.3237C19.2036 18.3385 19.2668 18.347 19.3191 18.3514C19.3434 18.3535 19.3651 18.355 19.3843 18.3556C19.417 18.357 19.4431 18.3564 19.4621 18.3556C19.4885 18.3544 19.5019 18.3523 19.5019 18.3523C19.8901 18.3523 20.2549 18.2495 20.5695 18.0701C20.5867 18.0604 20.6037 18.0504 20.6206 18.0401C21.238 17.665 21.6508 16.9893 21.6508 16.2195C21.6508 15.9953 21.6158 15.7791 21.5508 15.5755C21.5466 15.562 21.5419 15.5487 21.5374 15.5352C21.53 15.5137 21.5223 15.4925 21.5143 15.4713C21.5063 15.45 21.498 15.4291 21.4894 15.4082C21.4805 15.3873 21.4716 15.3667 21.4624 15.3461C21.4437 15.3051 21.4238 15.2647 21.4027 15.2253C21.392 15.2055 21.3813 15.1858 21.37 15.1664C21.3697 15.1664 21.3697 15.1664 21.3697 15.1661C21.3576 15.1446 21.3448 15.1233 21.3318 15.1024C21.3252 15.0921 21.3187 15.0815 21.3119 15.0712C21.2935 15.0432 21.2748 15.0155 21.2552 14.9884C21.2454 14.9746 21.2356 14.961 21.2258 14.9478C21.2249 14.9466 21.224 14.9457 21.2234 14.9448C21.221 14.9419 21.219 14.9389 21.2166 14.9363C21.213 14.9313 21.2095 14.9263 21.2056 14.9216C21.2017 14.9165 21.1982 14.9118 21.1943 14.9071C21.1836 14.8939 21.173 14.8806 21.162 14.8674C21.1537 14.8573 21.1454 14.847 21.1367 14.8373C21.1222 14.8202 21.1071 14.8034 21.0919 14.7869C21.0676 14.7601 21.0424 14.7342 21.0162 14.7086C21.0035 14.6959 20.9904 14.6832 20.9771 14.6709C20.9771 14.6706 20.9771 14.6706 20.9768 14.6706C20.5918 14.3091 20.0724 14.0876 19.5019 14.0876C19.1947 14.0893 18.8685 14.16 18.5307 14.2911C18.5123 14.2982 18.4936 14.3056 18.4752 14.3132C18.1466 14.4464 17.8077 14.6361 17.4643 14.8741C17.4461 14.8862 17.428 14.8989 17.4099 14.9118C17.0235 15.1849 16.632 15.519 16.2446 15.9025C16.1609 15.9853 16.0775 16.0704 15.9947 16.1579C15.9736 16.18 15.9526 16.2021 15.9321 16.2242C15.9075 16.2504 15.8828 16.2767 15.8588 16.3032C15.8392 16.3238 15.8199 16.345 15.8009 16.3659C15.7119 16.4634 15.6234 16.5636 15.5353 16.6658C15.5347 16.6661 15.5347 16.6661 15.5344 16.6667C15.1817 17.077 14.8086 17.4954 14.418 17.8889C14.4026 17.9042 14.3875 17.9196 14.372 17.9349C14.0031 18.3034 13.6187 18.6487 13.2219 18.943C13.2055 18.955 13.1895 18.9668 13.1732 18.9786C12.6276 19.3763 12.0587 19.6765 11.4724 19.8085C11.4523 19.8132 11.4324 19.8173 11.4122 19.8214C11.2359 19.8577 11.0578 19.8786 10.8785 19.8818C10.8607 19.8821 10.8429 19.8824 10.8251 19.8824C10.7108 19.8936 10.5957 19.8995 10.4793 19.8995C10.4428 19.8995 10.4057 19.8992 10.3692 19.898C10.3428 19.8971 10.3163 19.8962 10.2902 19.8948H10.2876C10.2564 19.893 10.2252 19.8909 10.1944 19.8886C10.1534 19.8859 10.1136 19.8818 10.0733 19.8774C10.0534 19.8753 10.0341 19.873 10.0145 19.8706C10.01 19.8703 10.005 19.8694 10.0002 19.8691C9.97471 19.8659 9.94948 19.8624 9.92396 19.8582C9.91921 19.858 9.91387 19.8571 9.90882 19.8559C9.88003 19.8518 9.85154 19.8471 9.82304 19.8417C9.78891 19.8359 9.75507 19.8294 9.72153 19.8223C9.70105 19.8182 9.68087 19.8138 9.66068 19.8093C9.64288 19.8055 9.62507 19.8014 9.60785 19.797C9.58529 19.7917 9.56273 19.7861 9.54018 19.7802C9.49298 19.7681 9.44638 19.7548 9.40038 19.741C9.37901 19.7345 9.35823 19.728 9.33715 19.7213C9.33359 19.7207 9.33003 19.7195 9.32677 19.7177C9.30807 19.7118 9.28966 19.7056 9.27156 19.6995C9.20121 19.6756 9.13176 19.6497 9.06379 19.6214C9.0445 19.6137 9.02491 19.6052 9.00591 19.5972C9.00205 19.5958 8.99789 19.594 8.99404 19.5919C8.97445 19.5837 8.95575 19.5751 8.93675 19.5663C8.89401 19.5472 8.85157 19.5268 8.81001 19.5059C8.78656 19.4947 8.76371 19.4826 8.74056 19.4703C8.72304 19.4608 8.70524 19.4514 8.68743 19.4414C8.68149 19.4382 8.67555 19.4352 8.66991 19.4317C8.6524 19.4226 8.63519 19.4128 8.61827 19.4028C8.5782 19.3801 8.53872 19.3563 8.49984 19.3315C8.485 19.3221 8.47046 19.313 8.45591 19.3029C8.38586 19.2579 8.3173 19.2104 8.25022 19.1607C8.23033 19.1456 8.21015 19.1303 8.19056 19.1147C8.18848 19.1132 8.18611 19.1115 8.18403 19.1097C8.16266 19.0932 8.14158 19.0764 8.1211 19.0593C8.10923 19.0496 8.09736 19.0402 8.08578 19.0302C8.07391 19.0204 8.06233 19.0104 8.05046 19.0004C8.02909 18.9816 8.00772 18.9627 7.98635 18.9436C7.97626 18.9347 7.96617 18.9253 7.95607 18.9162C7.94598 18.9067 7.93619 18.8973 7.92639 18.8879C7.91541 18.8779 7.90472 18.8676 7.89404 18.8575C7.88098 18.8449 7.86822 18.8322 7.85545 18.8195C7.83527 18.7995 7.81538 18.7792 7.7955 18.7586C7.77858 18.7412 7.76196 18.7235 7.74534 18.7052C7.74266 18.7026 7.74029 18.6999 7.73792 18.6973C7.70141 18.6572 7.6652 18.6166 7.63017 18.575C7.61296 18.5541 7.59544 18.5332 7.57852 18.512C7.56131 18.4908 7.54469 18.4693 7.52807 18.4478C7.5061 18.4189 7.48443 18.3897 7.46336 18.3603C7.45089 18.3432 7.43843 18.3255 7.42626 18.3078C7.4132 18.2896 7.40044 18.2707 7.38797 18.2519C7.37817 18.2374 7.36868 18.223 7.35918 18.2083C7.34256 18.1829 7.32623 18.1573 7.3105 18.1314C7.29863 18.1125 7.28735 18.0937 7.27607 18.0745C7.27251 18.0683 7.26895 18.0621 7.26538 18.0557C7.26509 18.0557 7.26509 18.0554 7.26509 18.0551C7.25856 18.0436 7.25203 18.0321 7.2455 18.0203C7.24223 18.0153 7.23927 18.01 7.23659 18.0047C7.23036 17.9947 7.22472 17.9844 7.21938 17.9741C7.20543 17.9496 7.19267 17.9249 7.17961 17.8998C7.17278 17.8863 7.16565 17.8727 7.15912 17.8589C7.14399 17.8294 7.12915 17.7994 7.1152 17.769C7.10689 17.7511 7.09857 17.7331 7.09056 17.7151C7.07364 17.6777 7.05791 17.6403 7.04218 17.602C7.03001 17.5734 7.01873 17.5446 7.00805 17.5148C7.00033 17.4948 6.99261 17.4744 6.98549 17.4541C6.984 17.4509 6.98282 17.4473 6.98163 17.4435C6.97362 17.4205 6.9656 17.3967 6.95759 17.3731C6.94898 17.3481 6.94097 17.3227 6.93295 17.2971C6.90921 17.2199 6.88784 17.1419 6.86914 17.062C6.8635 17.0385 6.85815 17.0149 6.85341 16.9907C6.84895 16.9725 6.84539 16.9536 6.84183 16.9348C6.83767 16.9168 6.83441 16.8988 6.83114 16.8803C6.82996 16.8741 6.82877 16.8676 6.82818 16.8611C6.82372 16.8384 6.81957 16.8152 6.8163 16.7922C6.81482 16.7839 6.81363 16.776 6.81245 16.7674C6.80948 16.7492 6.8071 16.7312 6.80473 16.7126C6.80235 16.6947 6.79968 16.6767 6.7979 16.6581C6.79464 16.631 6.79137 16.6034 6.789 16.5757C6.78543 16.5412 6.78247 16.507 6.78039 16.472C6.77712 16.4237 6.77475 16.3748 6.77327 16.3256C6.77267 16.2976 6.77208 16.269 6.77208 16.241C6.77148 16.2407 6.77148 16.2404 6.77208 16.2398C6.77148 16.2395 6.77148 16.2395 6.77208 16.2389C6.77148 16.2387 6.77148 16.2387 6.77208 16.2384C6.77148 16.2322 6.77148 16.2263 6.77148 16.2204C6.77148 16.1992 6.77148 16.1783 6.77237 16.1573C6.77237 16.1347 6.77327 16.1123 6.77386 16.0899C6.77386 16.0878 6.77386 16.0858 6.77445 16.0837C6.77534 16.0613 6.77594 16.0389 6.77712 16.0165C6.7792 15.9794 6.78217 15.942 6.78543 15.9049C6.78692 15.8831 6.789 15.8613 6.79137 15.8395C6.7979 15.7756 6.80621 15.7119 6.8163 15.6486C6.81838 15.6339 6.82076 15.6191 6.82372 15.6041C6.82758 15.5791 6.83203 15.554 6.83738 15.5293C6.84331 15.4966 6.84984 15.4648 6.85697 15.4324C6.86884 15.3788 6.8816 15.3251 6.89615 15.2724C6.90119 15.2544 6.90594 15.2365 6.91128 15.2188C6.91663 15.1982 6.92256 15.1778 6.9288 15.1575C6.93384 15.1419 6.93859 15.126 6.94393 15.1098C6.94957 15.0921 6.95521 15.0747 6.96115 15.0565C6.96649 15.0415 6.97154 15.0261 6.97688 15.0108C6.98133 14.9979 6.98608 14.9846 6.99113 14.9713C7.02556 14.8756 7.06444 14.7819 7.10689 14.69C7.11638 14.6688 7.12648 14.647 7.13686 14.6264C7.14844 14.6025 7.15972 14.5798 7.17159 14.5566C7.18287 14.5345 7.19474 14.5127 7.20632 14.4906C7.23422 14.439 7.26331 14.3878 7.29358 14.3374C7.31525 14.3009 7.33751 14.2652 7.36096 14.2296C7.36274 14.226 7.36541 14.2225 7.36779 14.2187C7.38114 14.1983 7.3948 14.1783 7.40845 14.1583C7.42299 14.1362 7.43843 14.1147 7.45416 14.0932C7.46811 14.0726 7.48295 14.0525 7.49809 14.0325C7.51204 14.0139 7.52658 13.9945 7.54113 13.9762C7.57556 13.9317 7.61088 13.8881 7.64679 13.8457C7.66163 13.8283 7.67677 13.8113 7.69191 13.7942C7.70645 13.7777 7.721 13.7612 7.73584 13.7453C7.7949 13.6805 7.85634 13.618 7.92016 13.5576C7.935 13.5438 7.94984 13.5299 7.96498 13.5164C7.97744 13.5046 7.99021 13.4934 8.00297 13.4819C8.01633 13.4698 8.02968 13.458 8.04274 13.4466C8.1122 13.3865 8.18403 13.329 8.25793 13.2739C8.27842 13.2583 8.29949 13.2433 8.32027 13.2283C8.32412 13.2256 8.32709 13.2233 8.33095 13.2209C8.37072 13.1929 8.41109 13.1652 8.45235 13.1384C8.47253 13.1255 8.49301 13.1128 8.51349 13.0998C8.53546 13.086 8.55742 13.0727 8.57968 13.0595C8.60194 13.0462 8.62421 13.0335 8.64676 13.0206C8.6714 13.0067 8.69574 12.9935 8.72037 12.9799C8.74145 12.9687 8.76252 12.9578 8.78389 12.9469C8.80675 12.9349 8.83019 12.9234 8.85364 12.9122C8.87709 12.901 8.90024 12.8898 8.92429 12.8789C8.94714 12.868 8.97059 12.8577 8.99433 12.8474C9.09406 12.8041 9.19587 12.7649 9.30005 12.7304C9.32113 12.7233 9.3425 12.7163 9.36387 12.7101C9.3888 12.7021 9.41433 12.6945 9.43956 12.6871C9.46508 12.6795 9.49031 12.6724 9.51584 12.6656C9.54522 12.6579 9.57461 12.6503 9.60459 12.6432C9.62507 12.6385 9.64614 12.6335 9.66751 12.6288C9.68532 12.6252 9.70313 12.6211 9.72064 12.6176C9.73964 12.6135 9.75863 12.6096 9.77793 12.6064C9.78356 12.6052 9.7892 12.604 9.79544 12.6032C9.81117 12.5999 9.8269 12.5973 9.84293 12.5943C9.8643 12.5908 9.88597 12.5872 9.90793 12.584C9.93464 12.5796 9.96076 12.5761 9.98748 12.5722C10.0353 12.5663 10.0836 12.5607 10.1326 12.5563C10.1528 12.5543 10.173 12.5528 10.1932 12.5516C10.216 12.5495 10.2389 12.5478 10.262 12.5466C10.2855 12.5454 10.3083 12.5442 10.3318 12.5434C10.3564 12.5422 10.3805 12.5416 10.4051 12.541C10.4297 12.5407 10.455 12.5404 10.4793 12.5404H10.4811C10.5096 12.5404 10.5378 12.5407 10.5666 12.5416C10.5921 12.5419 10.6173 12.5431 10.6428 12.5442C10.663 12.5451 10.6832 12.5463 10.7034 12.5478C10.7283 12.5495 10.753 12.551 10.7776 12.5534C10.7815 12.5534 10.7856 12.554 10.7892 12.5543C10.8002 12.5551 10.8114 12.5563 10.8221 12.5572C10.823 12.5575 10.8242 12.5575 10.8251 12.5575C10.8533 12.5604 10.8812 12.5634 10.9094 12.5666C10.9287 12.569 10.948 12.5716 10.9676 12.5743C10.9907 12.5775 11.0148 12.5811 11.0379 12.5846C11.0848 12.5923 11.1317 12.6002 11.1783 12.6096C11.1795 12.6099 11.181 12.6102 11.1822 12.6105C11.1973 12.6135 11.2124 12.6164 11.2276 12.6196C11.2294 12.6199 11.2311 12.6202 11.2329 12.6208C11.238 12.6217 11.2427 12.6229 11.2478 12.6241C11.2507 12.6247 11.2537 12.6252 11.2567 12.6258C11.2596 12.6264 11.2626 12.627 11.2656 12.6276C11.2679 12.6279 11.2703 12.6288 11.2724 12.6291C11.2822 12.6311 11.2923 12.6335 11.3018 12.6356C11.3116 12.6376 11.3214 12.64 11.3309 12.6423C11.3442 12.6456 11.3576 12.6491 11.3712 12.6523C11.3718 12.6523 11.3721 12.6526 11.3724 12.6526C11.3727 12.6529 11.373 12.6529 11.3736 12.6532C11.3778 12.6541 11.3816 12.6553 11.3858 12.6562C11.3947 12.6585 11.4036 12.6609 11.4125 12.6632C11.4169 12.6647 11.4217 12.6659 11.4261 12.6668C11.4434 12.6712 11.4609 12.6756 11.4781 12.6803C11.5184 12.6912 11.5588 12.703 11.5986 12.7157C11.6179 12.7216 11.6369 12.7278 11.6562 12.7342C11.658 12.7345 11.6594 12.7351 11.6612 12.7357C11.6669 12.7375 11.6728 12.7393 11.6784 12.741C11.6933 12.7457 11.7081 12.7507 11.723 12.7557C11.7532 12.7652 11.7826 12.7764 11.812 12.7873C11.8295 12.7938 11.8476 12.7999 11.8648 12.807C11.8841 12.8141 11.9031 12.8211 11.9224 12.8288C11.9435 12.8373 11.9646 12.8453 11.9853 12.8541C12.0064 12.8624 12.0269 12.8712 12.048 12.8801C12.0684 12.8886 12.0892 12.8977 12.1097 12.9066C12.1302 12.9157 12.151 12.9248 12.1714 12.9343C12.1827 12.9393 12.1937 12.9443 12.2047 12.9496C12.2157 12.9546 12.2267 12.9596 12.2379 12.9646C12.2448 12.9679 12.2516 12.9711 12.2584 12.9746C12.3104 12.9994 12.3623 13.025 12.4133 13.0509C12.4466 13.0683 12.4795 13.0854 12.5122 13.1037C12.5324 13.114 12.5523 13.1249 12.5715 13.1361C12.6054 13.1543 12.6392 13.1732 12.6728 13.1929C12.7556 13.2406 12.8369 13.2901 12.9164 13.3414C12.9334 13.3517 12.9503 13.3626 12.9672 13.3738C13.1135 13.4686 13.2539 13.5679 13.3878 13.6693C13.4255 13.6975 13.462 13.7255 13.4979 13.7541C13.5258 13.7756 13.5531 13.7977 13.5807 13.8192C13.6166 13.8481 13.652 13.8769 13.6867 13.9058C13.738 13.9482 13.7879 13.9907 13.8363 14.0325C13.8369 14.0331 13.8369 14.0331 13.8369 14.0334C13.8428 14.0401 13.8487 14.0469 13.855 14.0543C13.895 14.0832 13.9319 14.1162 13.9651 14.1521L13.9654 14.1524C14.0832 14.2791 14.1574 14.4461 14.1649 14.6302C14.1652 14.6402 14.1654 14.6502 14.1654 14.6603C14.1654 14.7807 14.137 14.8945 14.0862 14.9949C14.0657 15.0359 14.0417 15.0744 14.0144 15.1104C14.0004 15.1289 13.9856 15.1466 13.9698 15.1637C13.8318 15.3151 13.6321 15.41 13.4101 15.41C13.2041 15.41 13.0177 15.3281 12.8811 15.1955C12.8737 15.1911 12.8663 15.187 12.8589 15.1823C12.8532 15.1787 12.8473 15.1749 12.8417 15.1711H12.8414L12.8402 15.1699C12.8179 15.1528 12.7956 15.1351 12.7737 15.1177C12.7672 15.113 12.7606 15.1083 12.7541 15.1033C12.7538 15.103 12.7535 15.103 12.7535 15.1027C12.7315 15.0859 12.7102 15.0694 12.6894 15.0538C12.6461 15.0208 12.6033 14.9893 12.5612 14.959C12.5428 14.9454 12.5247 14.9325 12.5065 14.9195C12.5051 14.9183 12.5033 14.9171 12.5018 14.916C12.4816 14.9012 12.4614 14.8868 12.4412 14.8732C12.4199 14.8585 12.3985 14.8435 12.3774 14.8293C12.359 14.8164 12.3409 14.804 12.3225 14.7925C12.2851 14.7672 12.2483 14.7427 12.2121 14.7195C12.1916 14.7062 12.1714 14.6935 12.1513 14.6812C12.1326 14.6691 12.1142 14.6579 12.0961 14.647C12.0779 14.6355 12.0595 14.6243 12.042 14.614C12.042 14.614 12.042 14.614 12.0414 14.614C12.0233 14.6025 12.0061 14.5922 11.9883 14.5822C11.9705 14.5719 11.9527 14.5619 11.9355 14.5518C11.9007 14.5318 11.8666 14.513 11.8331 14.4947C11.8162 14.4853 11.7995 14.4764 11.7829 14.4679C11.7666 14.4593 11.75 14.4505 11.7336 14.4423C11.7233 14.437 11.7123 14.4314 11.7019 14.4258C11.693 14.4213 11.6841 14.4169 11.6752 14.4125C11.6627 14.4066 11.6508 14.4004 11.6387 14.3945C11.6194 14.3854 11.6004 14.376 11.5817 14.3671C11.5553 14.3548 11.5297 14.343 11.5042 14.3318C11.5036 14.3315 11.503 14.3312 11.5024 14.3309C11.4846 14.323 11.4671 14.3153 11.4496 14.3082C11.441 14.3044 11.4327 14.3009 11.4244 14.2973C11.4184 14.2947 11.4122 14.292 11.4063 14.2897C11.3816 14.2791 11.3576 14.2696 11.3335 14.2605C11.3199 14.2549 11.3065 14.2496 11.2938 14.2452C11.2715 14.2363 11.2501 14.2284 11.2288 14.221C11.1997 14.2107 11.1712 14.2013 11.1436 14.1924C11.1293 14.1871 11.1136 14.1824 11.097 14.178C11.0703 14.1692 11.0424 14.1615 11.0159 14.1547C10.6612 14.0581 10.4793 14.0876 10.4793 14.0876C9.77704 14.0876 9.15224 14.424 8.76015 14.9431C8.74679 14.9601 8.73432 14.9775 8.72186 14.9952C8.72156 14.9952 8.72156 14.9952 8.72186 14.9955C8.4755 15.3422 8.33095 15.765 8.33095 16.2204C8.33095 16.3851 8.34995 16.5456 8.38586 16.7C8.39417 16.7362 8.40367 16.7722 8.41376 16.8075C8.56514 17.3301 8.91271 17.7714 9.37218 18.0465C9.3888 18.0568 9.40602 18.0666 9.42323 18.0763C9.73518 18.2519 10.0958 18.3523 10.4793 18.3523C10.4793 18.3523 10.5176 18.3538 10.5888 18.3494H10.5915C10.6135 18.3485 10.6351 18.347 10.6568 18.3452C10.6791 18.3432 10.701 18.3411 10.7227 18.3388C10.7586 18.3346 10.7939 18.3296 10.8287 18.3237C10.8319 18.3234 10.8349 18.3226 10.8379 18.3223C10.8907 18.314 10.9486 18.3037 11.0112 18.2905C11.0112 18.2905 11.0112 18.2905 11.0115 18.2905C11.4098 18.2068 11.9954 18.0091 12.6449 17.546C12.6624 17.534 12.6796 17.5213 12.6971 17.5086C12.7449 17.4736 12.7933 17.4373 12.8417 17.3993C13.2207 17.0491 13.6077 16.6387 14.0058 16.2083C14.0245 16.1877 14.0435 16.1674 14.0628 16.1467C14.0832 16.1241 14.104 16.1017 14.1248 16.079C14.1438 16.0584 14.1628 16.0377 14.1818 16.0171C14.6748 15.4816 15.1844 14.9251 15.7145 14.4222C15.7306 14.4069 15.7466 14.3916 15.7629 14.3766C16.1654 13.998 16.5797 13.6519 17.008 13.3708C17.025 13.3597 17.0419 13.3485 17.0588 13.3379C17.2779 13.1967 17.5008 13.073 17.7272 12.9714C17.7453 12.9628 17.7634 12.9549 17.7815 12.9472C17.7833 12.9463 17.7848 12.9455 17.7866 12.9449C17.8026 12.9375 17.8189 12.9301 17.8353 12.9231C17.851 12.9154 17.8676 12.9086 17.8837 12.9013C17.9059 12.8918 17.9285 12.8821 17.951 12.873C17.9869 12.8577 18.0229 12.8429 18.0594 12.8288C18.0825 12.8197 18.106 12.8108 18.1297 12.802C18.1499 12.7943 18.1707 12.787 18.1909 12.7796C18.2093 12.7725 18.228 12.7661 18.2467 12.7596C18.2511 12.7581 18.2553 12.7569 18.26 12.7557C18.2645 12.754 18.2689 12.7528 18.2734 12.7513C18.2838 12.7472 18.2947 12.7437 18.3054 12.7404C18.3339 12.7307 18.3624 12.7219 18.3912 12.7133C18.4138 12.7063 18.4363 12.6995 18.4589 12.6933C18.4693 12.6904 18.48 12.6871 18.4903 12.6845C18.5197 12.6762 18.5491 12.6683 18.5788 12.6606C18.5981 12.6553 18.6174 12.6506 18.6367 12.6459C18.6557 12.6414 18.6747 12.637 18.6937 12.6326C18.753 12.6191 18.813 12.607 18.8732 12.5967C18.894 12.5928 18.9151 12.589 18.9362 12.5858C18.9635 12.5816 18.9905 12.5775 19.0181 12.574C19.04 12.5707 19.0626 12.5678 19.0849 12.5652C19.1059 12.5628 19.1264 12.5604 19.1475 12.5584C19.1502 12.5578 19.1534 12.5578 19.1564 12.5575C19.271 12.5463 19.3861 12.5404 19.5019 12.5404C19.539 12.5404 19.5758 12.5407 19.6126 12.5419C19.639 12.5428 19.6654 12.5434 19.6916 12.5451H19.6942C19.7254 12.5466 19.7566 12.5487 19.7874 12.551C19.8284 12.5543 19.8685 12.5578 19.9085 12.5622C19.9284 12.5643 19.9477 12.5666 19.9673 12.569C19.9723 12.5696 19.9771 12.5702 19.9815 12.5707C20.0071 12.574 20.0323 12.5775 20.0578 12.5816C20.0629 12.5822 20.0682 12.5828 20.073 12.584C20.1018 12.5878 20.1302 12.5928 20.1584 12.5979C20.1929 12.604 20.2267 12.6102 20.2603 12.6176C20.2807 12.6214 20.3015 12.6258 20.3214 12.6303C20.3392 12.6344 20.3567 12.6385 20.3739 12.6426C20.3965 12.6479 20.419 12.6535 20.4416 12.6597C20.4885 12.6715 20.5354 12.6848 20.5814 12.6989C20.6028 12.7051 20.6236 12.7116 20.6446 12.7183C20.6482 12.7195 20.6518 12.7207 20.655 12.7219C20.6737 12.7281 20.6921 12.7339 20.7102 12.7404C20.7809 12.764 20.8503 12.7905 20.9186 12.8185C20.9349 12.8253 20.9515 12.832 20.9676 12.8388C20.9782 12.8432 20.9889 12.8482 20.9996 12.853C21.0148 12.8594 21.0302 12.8662 21.045 12.8733C21.0809 12.8892 21.116 12.9063 21.1513 12.9234C21.1673 12.9313 21.1839 12.9399 21.2 12.9481C21.2181 12.957 21.2359 12.9667 21.2537 12.9761C21.2852 12.9926 21.3166 13.01 21.3475 13.0279C21.3709 13.0412 21.3944 13.0548 21.4175 13.0686C21.4211 13.0707 21.4247 13.073 21.4282 13.0754C21.4496 13.088 21.4707 13.101 21.4911 13.1143C21.5211 13.1331 21.5508 13.1523 21.5802 13.1723C21.6033 13.1876 21.6259 13.2032 21.6485 13.2191C21.6493 13.2197 21.6502 13.2203 21.6508 13.2209C21.701 13.256 21.7497 13.2925 21.7978 13.3302C21.8191 13.3464 21.8402 13.3632 21.8607 13.3806C21.8803 13.3965 21.8999 13.413 21.9192 13.4295C21.9304 13.4389 21.9414 13.4486 21.9521 13.4578C21.9714 13.4745 21.9907 13.4919 22.0097 13.5093C22.0248 13.5229 22.0397 13.5367 22.0542 13.5508C22.1023 13.5956 22.1492 13.6425 22.1946 13.6899C22.2112 13.7073 22.2278 13.7246 22.2439 13.7423C22.3418 13.849 22.4338 13.9618 22.5184 14.0793C22.5309 14.0967 22.5436 14.1144 22.5555 14.1318C22.5621 14.1412 22.5686 14.1506 22.5745 14.16C22.5813 14.1692 22.5876 14.1786 22.5938 14.188C22.5989 14.1957 22.6042 14.2034 22.6089 14.2113C22.6321 14.2455 22.6541 14.2805 22.6754 14.3159C22.6929 14.3439 22.7099 14.3721 22.7262 14.401C22.7318 14.411 22.7378 14.4211 22.7431 14.4311C22.7499 14.4426 22.7562 14.454 22.7624 14.4658C22.7707 14.4803 22.7784 14.4947 22.7859 14.5091C22.7915 14.5194 22.7968 14.5295 22.8022 14.5398C22.8037 14.5427 22.8051 14.546 22.8066 14.5489C22.8271 14.5893 22.8476 14.6296 22.8666 14.6706C22.8684 14.6747 22.8701 14.6788 22.8722 14.6826C22.8785 14.6968 22.885 14.7109 22.8912 14.7248C22.9123 14.7716 22.9325 14.819 22.9515 14.8671C22.9577 14.8833 22.9639 14.8992 22.9702 14.9154C22.9714 14.9186 22.9725 14.9216 22.9737 14.9248C22.9815 14.9448 22.9892 14.9654 22.9963 14.9858C22.9978 14.9893 22.999 14.9925 23.0002 14.9961C23.0085 15.0194 23.0165 15.0429 23.0242 15.0665C23.0284 15.0792 23.0328 15.0918 23.037 15.1045C23.0408 15.1172 23.045 15.1298 23.0488 15.1428C23.0592 15.177 23.0693 15.2114 23.0788 15.2459C23.083 15.2609 23.0871 15.2762 23.091 15.2916C23.0987 15.3201 23.1058 15.3487 23.1126 15.3776C23.1156 15.3894 23.1183 15.4011 23.121 15.4132C23.1233 15.425 23.126 15.4368 23.1284 15.4489C23.1296 15.453 23.1305 15.4568 23.131 15.4612C23.1343 15.4757 23.1373 15.4904 23.14 15.5054C23.1441 15.5234 23.1474 15.5414 23.1506 15.5593C23.1518 15.5658 23.153 15.5723 23.1536 15.5785C23.1581 15.6015 23.1622 15.6247 23.1655 15.6474C23.167 15.6554 23.1681 15.6639 23.1693 15.6722C23.1732 15.696 23.1765 15.7199 23.1794 15.7435C23.18 15.747 23.1803 15.7508 23.1809 15.7546C23.1836 15.7767 23.1866 15.7991 23.1889 15.8212C23.1901 15.8321 23.1907 15.8427 23.1922 15.8536C23.2005 15.9396 23.2061 16.0266 23.2085 16.1143C23.2094 16.1423 23.2097 16.1706 23.2097 16.1986C23.2103 16.1992 23.2097 16.1995 23.2097 16.1995V16.1998C23.2103 16.2004 23.2103 16.2004 23.2097 16.2007C23.2103 16.2009 23.2103 16.2009 23.2097 16.2015C23.2103 16.2054 23.2103 16.2098 23.2103 16.2139Z" fill="white"></path>
</svg></svg></g></svg></g><g id="dark-icon"><svg xmlns="http://www.w3.org/2000/svg" version="1.1" xmlns:xlink="http://www.w3.org/1999/xlink" xmlns:svgjs="http://svgjs.com/svgjs" width="1000" height="1000"><rect width="1000" height="1000" rx="300" ry="300" fill="#c7c7c7"></rect><g transform="matrix(29.032258064516128,0,0,29.032258064516128,64.77150217179332,57.84343744093371)"><svg xmlns="http://www.w3.org/2000/svg" version="1.1" xmlns:xlink="http://www.w3.org/1999/xlink" xmlns:svgjs="http://svgjs.com/svgjs" width="30" height="31"><svg width="30" height="31" viewBox="0 0 30 31" fill="none" xmlns="http://www.w3.org/2000/svg">
<path d="M16.7805 11.2142C16.7754 11.2169 16.7701 11.2198 16.765 11.2228C16.7615 11.2248 16.7582 11.2266 16.7546 11.2287C16.5305 11.3565 16.3165 11.4997 16.1141 11.6567C15.6861 11.9875 15.3092 12.3802 14.9963 12.8209C14.6805 12.3755 14.2988 11.9793 13.8654 11.6464C13.6859 11.5079 13.4971 11.3807 13.3006 11.2652C13.2988 11.264 13.297 11.2628 13.2953 11.262C13.2641 11.2434 13.2326 11.2254 13.2012 11.2081L13.9886 9.79462L14.9886 8L15.9877 9.79197L16.7805 11.2142Z" fill="black"></path>
<path d="M13.2955 11.2619C13.2637 11.2439 13.232 11.2266 13.2002 11.2101L13.2014 11.208C13.2328 11.2254 13.2643 11.2434 13.2955 11.2619Z" fill="black"></path>
<path d="M16.7803 11.2142C16.7753 11.2172 16.7701 11.22 16.7651 11.223C16.7701 11.22 16.7753 11.2169 16.7803 11.2142Z" fill="black"></path>
<path d="M17.7146 21.1168L17.0649 22.4404C16.3015 22.1629 15.5998 21.7581 14.986 21.252C14.3743 21.7566 13.675 22.1608 12.9143 22.438L12.2666 21.1183C12.2915 21.11 12.3165 21.1015 12.3411 21.0926C12.3548 21.0879 12.3684 21.0829 12.3818 21.0779C12.4067 21.0691 12.4313 21.0599 12.456 21.0505C12.4794 21.042 12.5029 21.0328 12.526 21.0237C12.5854 21.0004 12.6444 20.976 12.7026 20.9507C12.7273 20.94 12.7516 20.9291 12.7759 20.9182C12.7825 20.9153 12.789 20.9124 12.7952 20.9094C12.8211 20.8979 12.8466 20.8858 12.8721 20.8738C12.9573 20.8334 13.041 20.791 13.1235 20.7462C13.1425 20.7362 13.1612 20.7259 13.1799 20.7153C13.1998 20.7047 13.2194 20.6935 13.2387 20.6823C13.2479 20.6773 13.2568 20.6723 13.2657 20.667C13.2983 20.6481 13.3304 20.629 13.3624 20.6095C13.3948 20.5901 13.4271 20.57 13.4589 20.5497C13.4637 20.5468 13.4681 20.5438 13.4726 20.5409C13.5014 20.5226 13.5301 20.5041 13.5583 20.4849C13.5622 20.4826 13.5658 20.4802 13.5693 20.4778C13.6011 20.4566 13.6325 20.4351 13.6637 20.413C13.6967 20.3903 13.729 20.3671 13.7611 20.3435C13.7925 20.3205 13.824 20.297 13.8549 20.2731C13.8566 20.2719 13.8584 20.2704 13.8602 20.269C13.8908 20.2457 13.921 20.2221 13.951 20.198C13.984 20.1718 14.0166 20.145 14.0487 20.1179C14.0736 20.0969 14.0982 20.076 14.1226 20.0545C14.1345 20.0442 14.1463 20.0339 14.1582 20.0233C14.1858 19.9991 14.2128 19.9744 14.2398 19.9499C14.2404 19.9491 14.241 19.9485 14.2416 19.9482C14.2707 19.9214 14.2995 19.8943 14.328 19.8666C14.3321 19.8627 14.3363 19.8589 14.3402 19.8548C14.3689 19.8271 14.3974 19.7991 14.4253 19.7705C14.4538 19.742 14.4817 19.7128 14.5093 19.6836C14.5153 19.6774 14.5209 19.6716 14.5266 19.6654C14.5485 19.6421 14.5699 19.6188 14.5913 19.595C14.5966 19.5894 14.6019 19.5835 14.6067 19.5776C14.6334 19.5484 14.6592 19.519 14.6848 19.4892C14.6848 19.4889 14.6851 19.4886 14.6853 19.4883C14.7952 19.3608 14.8991 19.2279 14.9964 19.0903C15.1083 19.2485 15.2294 19.4008 15.3576 19.5461C15.3579 19.5464 15.3579 19.5464 15.3582 19.5466C15.3838 19.5755 15.4099 19.6044 15.436 19.6327C15.4591 19.6577 15.4826 19.6827 15.5063 19.7075C15.5123 19.714 15.5182 19.7202 15.5244 19.7263C15.5452 19.7479 15.566 19.7691 15.5871 19.79C15.62 19.8233 15.6536 19.856 15.6877 19.8884C15.7091 19.909 15.731 19.9293 15.753 19.9496C15.8177 20.0092 15.8842 20.0675 15.9519 20.124C15.9756 20.1441 15.9996 20.1638 16.024 20.1833C16.0258 20.1847 16.0275 20.1862 16.0293 20.1877C16.0311 20.1891 16.0332 20.1906 16.035 20.1921C16.0638 20.2154 16.0931 20.2383 16.1225 20.261C16.1486 20.2813 16.1754 20.3014 16.2021 20.3214C16.2136 20.33 16.2252 20.3382 16.2368 20.3467C16.2561 20.3612 16.2754 20.375 16.295 20.3889C16.3051 20.3959 16.3155 20.4033 16.3261 20.4107C16.3543 20.4307 16.3828 20.4501 16.4116 20.4693C16.4446 20.4917 16.4775 20.5135 16.5111 20.5347C16.5443 20.5562 16.5778 20.5774 16.6117 20.5977C16.6411 20.616 16.6707 20.6337 16.7004 20.6508C16.7073 20.6549 16.7138 20.6587 16.7203 20.6625C16.7527 20.6814 16.785 20.7 16.818 20.7179C16.8355 20.7276 16.853 20.7371 16.8705 20.7465C16.8782 20.7509 16.8862 20.755 16.8942 20.7595C16.9126 20.7692 16.9311 20.7789 16.9495 20.7883C16.9987 20.814 17.0486 20.8387 17.0988 20.8629C17.1109 20.8688 17.1228 20.8746 17.135 20.8802C17.1551 20.8897 17.1753 20.8988 17.1955 20.9082C17.2222 20.9206 17.2492 20.9327 17.2762 20.9445C17.2771 20.9445 17.2777 20.9448 17.2783 20.9453C17.3047 20.9568 17.3312 20.968 17.3576 20.9792C17.3763 20.9866 17.3947 20.9942 17.4134 21.0019C17.4321 21.0096 17.4505 21.0169 17.4692 21.024C17.4882 21.0317 17.5075 21.039 17.5268 21.0464C17.5502 21.0552 17.5734 21.0641 17.5968 21.0726C17.6108 21.0776 17.625 21.0826 17.6393 21.0876C17.6583 21.0944 17.6775 21.1012 17.6965 21.1077C17.6968 21.108 17.6968 21.108 17.6971 21.108C17.7078 21.1136 17.7138 21.1162 17.7146 21.1168Z" fill="black"></path>
<path d="M13.296 11.2619C13.2642 11.2439 13.2324 11.2266 13.2007 11.2101L13.2019 11.208C13.2333 11.2254 13.2648 11.2434 13.296 11.2619Z" fill="black"></path>
<path d="M16.7808 11.2142C16.7758 11.2172 16.7706 11.22 16.7656 11.223C16.7706 11.22 16.7758 11.2169 16.7808 11.2142Z" fill="black"></path>
<path d="M23.2103 16.2139V16.226C23.2103 16.2466 23.2097 16.2672 23.2094 16.2878C23.2091 16.3064 23.2085 16.3244 23.2079 16.3426C23.207 16.3697 23.2058 16.3966 23.2047 16.4234C23.2026 16.4605 23.1996 16.4976 23.1966 16.535C23.1949 16.5565 23.1928 16.5786 23.1904 16.6001C23.1839 16.6643 23.1756 16.728 23.1655 16.791C23.1634 16.806 23.161 16.8208 23.1581 16.8355C23.1542 16.8608 23.1492 16.8856 23.1444 16.9103C23.1388 16.9404 23.1328 16.9704 23.1263 17.0002C23.115 17.0517 23.1026 17.1033 23.0892 17.1542C23.0824 17.1799 23.0755 17.2049 23.0681 17.2302C23.061 17.2556 23.0533 17.2806 23.0456 17.3059C23.0378 17.3307 23.0298 17.3554 23.0215 17.3805C23.0162 17.3967 23.0105 17.4129 23.0049 17.4288C23.0004 17.442 22.9957 17.4553 22.9907 17.4686C22.9586 17.5578 22.923 17.645 22.8838 17.7301C22.8776 17.7446 22.8707 17.7596 22.8636 17.7737C22.8577 17.787 22.8512 17.8003 22.8449 17.8135C22.8366 17.8303 22.8286 17.8468 22.8206 17.8627C22.814 17.8757 22.8078 17.8886 22.8007 17.9016C22.7927 17.9172 22.7847 17.9328 22.7764 17.9481C22.7689 17.962 22.7612 17.9755 22.7535 17.9888C22.744 18.0068 22.7339 18.0244 22.7238 18.0421C22.6535 18.1647 22.5766 18.2819 22.4932 18.3947C22.4837 18.4077 22.4745 18.4201 22.465 18.4324C22.4228 18.4875 22.3798 18.5417 22.335 18.5942C22.3219 18.6092 22.3089 18.6245 22.2955 18.6392C22.2875 18.649 22.2792 18.6581 22.2709 18.6669C22.2566 18.6828 22.2421 18.6985 22.2278 18.7141C22.1643 18.7827 22.0987 18.8484 22.0305 18.9111C22.0132 18.9271 21.996 18.9427 21.9788 18.958C21.9616 18.9736 21.9438 18.9889 21.926 19.0039C21.9079 19.0201 21.8898 19.0352 21.8711 19.0499C21.8562 19.0626 21.8414 19.0749 21.8262 19.0864C21.7924 19.1138 21.7586 19.14 21.7238 19.1657C21.7034 19.1813 21.6823 19.1966 21.6615 19.2113C21.6182 19.2423 21.5743 19.2723 21.5294 19.3015C21.5092 19.3141 21.4888 19.3271 21.4683 19.3398C21.4463 19.3539 21.4244 19.3672 21.4021 19.3804C21.3935 19.3854 21.3849 19.3904 21.376 19.3954C21.3623 19.4034 21.3487 19.4114 21.335 19.419C21.3315 19.4211 21.3282 19.4228 21.3246 19.4249C21.2831 19.4485 21.2409 19.4709 21.1979 19.4927C21.175 19.5047 21.1516 19.5165 21.1281 19.5277C21.1047 19.5389 21.0815 19.5501 21.0575 19.5607C21.0346 19.5716 21.0112 19.5819 20.9874 19.5925C20.8877 19.6358 20.7859 19.6744 20.6817 19.7095C20.6607 19.7165 20.6393 19.7233 20.6179 19.7298C20.593 19.7378 20.5675 19.7454 20.5422 19.7525C20.5167 19.7601 20.4915 19.7675 20.4659 19.7743C20.4366 19.7817 20.4072 19.7893 20.3772 19.7967C20.3567 19.8014 20.3356 19.8061 20.3143 19.8111C20.2965 19.8146 20.2787 19.8188 20.2611 19.8223C20.2421 19.8261 20.2231 19.8303 20.2039 19.8335C20.1982 19.8347 20.192 19.8359 20.1863 19.8367C20.1706 19.84 20.1546 19.8426 20.1389 19.8456C20.1172 19.8491 20.0955 19.8526 20.0739 19.8559C20.0471 19.8603 20.021 19.8638 19.9943 19.8674C19.9465 19.8736 19.8975 19.8792 19.8492 19.8836C19.829 19.8853 19.8088 19.8871 19.7886 19.8883C19.7658 19.8904 19.7426 19.8918 19.7195 19.893C19.6963 19.8942 19.6734 19.8954 19.65 19.8962C19.6257 19.8974 19.6013 19.8983 19.5767 19.8986C19.552 19.8992 19.5271 19.8995 19.5019 19.8995H19.5007C19.4722 19.8995 19.444 19.8992 19.4152 19.8983C19.3897 19.898 19.3645 19.8965 19.3389 19.8954C19.3188 19.8948 19.2986 19.8936 19.2784 19.8918C19.2499 19.8904 19.2214 19.8883 19.1926 19.8853C19.1816 19.8848 19.1703 19.8836 19.1597 19.8827C19.1585 19.8827 19.1576 19.8824 19.1564 19.8824C19.1282 19.8795 19.1003 19.8762 19.0724 19.873C19.0531 19.8706 19.0338 19.8683 19.0142 19.8653C18.9905 19.8624 18.967 19.8585 18.9439 19.855C18.8967 19.8473 18.8498 19.8394 18.8035 19.8303C18.7821 19.8261 18.761 19.8217 18.7397 19.817C18.7311 19.8155 18.7227 19.8135 18.7138 19.8114C18.6788 19.8037 18.6441 19.7958 18.6094 19.787C18.6034 19.7855 18.5975 19.784 18.5916 19.7822C18.5717 19.7775 18.5521 19.7725 18.5325 19.7669C18.523 19.7646 18.5132 19.7619 18.5037 19.7593C18.4823 19.7537 18.461 19.7475 18.4396 19.741C18.401 19.7298 18.3624 19.718 18.3241 19.7054C18.3137 19.7021 18.3028 19.6989 18.2924 19.6953C18.2808 19.6912 18.2689 19.6877 18.2573 19.6833C18.2354 19.6756 18.2134 19.6682 18.1914 19.6606C18.1472 19.6444 18.1027 19.6282 18.0594 19.6108C18.0445 19.6049 18.0297 19.5993 18.0148 19.5931C18.0086 19.5908 18.0024 19.5884 17.9964 19.5858C17.9754 19.5772 17.9549 19.5684 17.9338 19.5595C17.9133 19.5513 17.8926 19.5424 17.8721 19.5333C17.8516 19.5239 17.8308 19.5148 17.8103 19.5056C17.7694 19.4871 17.729 19.4685 17.6886 19.4485C17.6483 19.429 17.6082 19.409 17.5687 19.3887C17.3458 19.2741 17.1324 19.1456 16.9306 19.0107C16.8947 18.9866 16.859 18.9621 16.824 18.9377C16.8074 18.9262 16.7911 18.9147 16.775 18.9032C16.7092 18.8564 16.6447 18.8092 16.5818 18.7615C16.5791 18.7594 16.5762 18.7574 16.5732 18.755C16.51 18.7073 16.4483 18.659 16.3883 18.6101C16.3797 18.6036 16.3714 18.5968 16.3628 18.5898C16.3399 18.5712 16.3174 18.5523 16.2951 18.5341C16.2705 18.5137 16.2461 18.4937 16.2224 18.4731C16.2084 18.4613 16.1945 18.4495 16.1805 18.4375C16.1752 18.433 16.1698 18.4283 16.1648 18.4239C16.158 18.4183 16.1514 18.4124 16.1449 18.4068C16.1381 18.3992 16.1313 18.3915 16.1247 18.3835C15.9879 18.2639 15.895 18.0957 15.873 17.906C15.8718 17.8933 15.8707 17.8807 15.8701 17.868C15.8689 17.8521 15.8683 17.8362 15.8683 17.8203C15.8683 17.6671 15.9146 17.5248 15.9938 17.4064C16.0069 17.3867 16.0211 17.3675 16.0366 17.349C16.1746 17.1793 16.3865 17.0706 16.6237 17.0706C16.8092 17.0706 16.979 17.1368 17.1104 17.2476C17.1137 17.2503 17.1167 17.2529 17.1199 17.2556C17.1268 17.2594 17.1336 17.2644 17.1404 17.2688C17.1968 17.3133 17.2523 17.356 17.3066 17.397C17.3242 17.4099 17.3414 17.4229 17.3586 17.4356C17.4432 17.498 17.5251 17.5563 17.6043 17.6105C17.6607 17.6488 17.716 17.6854 17.7697 17.7201C17.7988 17.739 17.8279 17.757 17.856 17.7746C17.8842 17.7923 17.9124 17.8094 17.9397 17.8259H17.9403C17.9579 17.8371 17.9757 17.8474 17.9935 17.8574C18.0113 17.868 18.0291 17.8783 18.0463 17.888C18.0516 17.8913 18.0567 17.8942 18.062 17.8972C18.1089 17.9237 18.1543 17.9487 18.1989 17.972C18.2155 17.9808 18.2318 17.9891 18.2475 17.9976C18.2624 18.0053 18.2775 18.013 18.2921 18.02C18.2933 18.0209 18.2947 18.0218 18.2959 18.0221C18.3117 18.03 18.3274 18.038 18.3431 18.0454C18.3589 18.053 18.3743 18.0604 18.3891 18.0672C18.4197 18.0822 18.4497 18.0957 18.4791 18.109C18.5084 18.1222 18.5372 18.1346 18.5654 18.1461C18.5797 18.1523 18.5936 18.1579 18.607 18.1629C18.6159 18.1667 18.6245 18.1703 18.6328 18.1735C18.6379 18.1756 18.6432 18.1776 18.6482 18.1794C18.6634 18.1859 18.6788 18.1915 18.6937 18.1971C18.7138 18.2047 18.7337 18.2118 18.753 18.2186C18.7821 18.2289 18.8103 18.2386 18.8376 18.2474C18.8525 18.2527 18.8679 18.2578 18.8845 18.2619C18.9115 18.2707 18.9394 18.2784 18.9658 18.2852C19.0231 18.3008 19.0757 18.3131 19.1237 18.3229C19.1258 18.3232 19.1276 18.3234 19.1294 18.3237C19.2036 18.3385 19.2668 18.347 19.3191 18.3514C19.3434 18.3535 19.3651 18.355 19.3843 18.3556C19.417 18.357 19.4431 18.3564 19.4621 18.3556C19.4885 18.3544 19.5019 18.3523 19.5019 18.3523C19.8901 18.3523 20.2549 18.2495 20.5695 18.0701C20.5867 18.0604 20.6037 18.0504 20.6206 18.0401C21.238 17.665 21.6508 16.9893 21.6508 16.2195C21.6508 15.9953 21.6158 15.7791 21.5508 15.5755C21.5466 15.562 21.5419 15.5487 21.5374 15.5352C21.53 15.5137 21.5223 15.4925 21.5143 15.4713C21.5063 15.45 21.498 15.4291 21.4894 15.4082C21.4805 15.3873 21.4716 15.3667 21.4624 15.3461C21.4437 15.3051 21.4238 15.2647 21.4027 15.2253C21.392 15.2055 21.3813 15.1858 21.37 15.1664C21.3697 15.1664 21.3697 15.1664 21.3697 15.1661C21.3576 15.1446 21.3448 15.1233 21.3318 15.1024C21.3252 15.0921 21.3187 15.0815 21.3119 15.0712C21.2935 15.0432 21.2748 15.0155 21.2552 14.9884C21.2454 14.9746 21.2356 14.961 21.2258 14.9478C21.2249 14.9466 21.224 14.9457 21.2234 14.9448C21.221 14.9419 21.219 14.9389 21.2166 14.9363C21.213 14.9313 21.2095 14.9263 21.2056 14.9216C21.2017 14.9165 21.1982 14.9118 21.1943 14.9071C21.1836 14.8939 21.173 14.8806 21.162 14.8674C21.1537 14.8573 21.1454 14.847 21.1367 14.8373C21.1222 14.8202 21.1071 14.8034 21.0919 14.7869C21.0676 14.7601 21.0424 14.7342 21.0162 14.7086C21.0035 14.6959 20.9904 14.6832 20.9771 14.6709C20.9771 14.6706 20.9771 14.6706 20.9768 14.6706C20.5918 14.3091 20.0724 14.0876 19.5019 14.0876C19.1947 14.0893 18.8685 14.16 18.5307 14.2911C18.5123 14.2982 18.4936 14.3056 18.4752 14.3132C18.1466 14.4464 17.8077 14.6361 17.4643 14.8741C17.4461 14.8862 17.428 14.8989 17.4099 14.9118C17.0235 15.1849 16.632 15.519 16.2446 15.9025C16.1609 15.9853 16.0775 16.0704 15.9947 16.1579C15.9736 16.18 15.9526 16.2021 15.9321 16.2242C15.9075 16.2504 15.8828 16.2767 15.8588 16.3032C15.8392 16.3238 15.8199 16.345 15.8009 16.3659C15.7119 16.4634 15.6234 16.5636 15.5353 16.6658C15.5347 16.6661 15.5347 16.6661 15.5344 16.6667C15.1817 17.077 14.8086 17.4954 14.418 17.8889C14.4026 17.9042 14.3875 17.9196 14.372 17.9349C14.0031 18.3034 13.6187 18.6487 13.2219 18.943C13.2055 18.955 13.1895 18.9668 13.1732 18.9786C12.6276 19.3763 12.0587 19.6765 11.4724 19.8085C11.4523 19.8132 11.4324 19.8173 11.4122 19.8214C11.2359 19.8577 11.0578 19.8786 10.8785 19.8818C10.8607 19.8821 10.8429 19.8824 10.8251 19.8824C10.7108 19.8936 10.5957 19.8995 10.4793 19.8995C10.4428 19.8995 10.4057 19.8992 10.3692 19.898C10.3428 19.8971 10.3163 19.8962 10.2902 19.8948H10.2876C10.2564 19.893 10.2252 19.8909 10.1944 19.8886C10.1534 19.8859 10.1136 19.8818 10.0733 19.8774C10.0534 19.8753 10.0341 19.873 10.0145 19.8706C10.01 19.8703 10.005 19.8694 10.0002 19.8691C9.97471 19.8659 9.94948 19.8624 9.92396 19.8582C9.91921 19.858 9.91387 19.8571 9.90882 19.8559C9.88003 19.8518 9.85154 19.8471 9.82304 19.8417C9.78891 19.8359 9.75507 19.8294 9.72153 19.8223C9.70105 19.8182 9.68087 19.8138 9.66068 19.8093C9.64288 19.8055 9.62507 19.8014 9.60785 19.797C9.58529 19.7917 9.56273 19.7861 9.54018 19.7802C9.49298 19.7681 9.44638 19.7548 9.40038 19.741C9.37901 19.7345 9.35823 19.728 9.33715 19.7213C9.33359 19.7207 9.33003 19.7195 9.32677 19.7177C9.30807 19.7118 9.28966 19.7056 9.27156 19.6995C9.20121 19.6756 9.13176 19.6497 9.06379 19.6214C9.0445 19.6137 9.02491 19.6052 9.00591 19.5972C9.00205 19.5958 8.99789 19.594 8.99404 19.5919C8.97445 19.5837 8.95575 19.5751 8.93675 19.5663C8.89401 19.5472 8.85157 19.5268 8.81001 19.5059C8.78656 19.4947 8.76371 19.4826 8.74056 19.4703C8.72304 19.4608 8.70524 19.4514 8.68743 19.4414C8.68149 19.4382 8.67555 19.4352 8.66991 19.4317C8.6524 19.4226 8.63519 19.4128 8.61827 19.4028C8.5782 19.3801 8.53872 19.3563 8.49984 19.3315C8.485 19.3221 8.47046 19.313 8.45591 19.3029C8.38586 19.2579 8.3173 19.2104 8.25022 19.1607C8.23033 19.1456 8.21015 19.1303 8.19056 19.1147C8.18848 19.1132 8.18611 19.1115 8.18403 19.1097C8.16266 19.0932 8.14158 19.0764 8.1211 19.0593C8.10923 19.0496 8.09736 19.0402 8.08578 19.0302C8.07391 19.0204 8.06233 19.0104 8.05046 19.0004C8.02909 18.9816 8.00772 18.9627 7.98635 18.9436C7.97626 18.9347 7.96617 18.9253 7.95607 18.9162C7.94598 18.9067 7.93619 18.8973 7.92639 18.8879C7.91541 18.8779 7.90472 18.8676 7.89404 18.8575C7.88098 18.8449 7.86822 18.8322 7.85545 18.8195C7.83527 18.7995 7.81538 18.7792 7.7955 18.7586C7.77858 18.7412 7.76196 18.7235 7.74534 18.7052C7.74266 18.7026 7.74029 18.6999 7.73792 18.6973C7.70141 18.6572 7.6652 18.6166 7.63017 18.575C7.61296 18.5541 7.59544 18.5332 7.57852 18.512C7.56131 18.4908 7.54469 18.4693 7.52807 18.4478C7.5061 18.4189 7.48443 18.3897 7.46336 18.3603C7.45089 18.3432 7.43843 18.3255 7.42626 18.3078C7.4132 18.2896 7.40044 18.2707 7.38797 18.2519C7.37817 18.2374 7.36868 18.223 7.35918 18.2083C7.34256 18.1829 7.32623 18.1573 7.3105 18.1314C7.29863 18.1125 7.28735 18.0937 7.27607 18.0745C7.27251 18.0683 7.26895 18.0621 7.26538 18.0557C7.26509 18.0557 7.26509 18.0554 7.26509 18.0551C7.25856 18.0436 7.25203 18.0321 7.2455 18.0203C7.24223 18.0153 7.23927 18.01 7.23659 18.0047C7.23036 17.9947 7.22472 17.9844 7.21938 17.9741C7.20543 17.9496 7.19267 17.9249 7.17961 17.8998C7.17278 17.8863 7.16565 17.8727 7.15912 17.8589C7.14399 17.8294 7.12915 17.7994 7.1152 17.769C7.10689 17.7511 7.09857 17.7331 7.09056 17.7151C7.07364 17.6777 7.05791 17.6403 7.04218 17.602C7.03001 17.5734 7.01873 17.5446 7.00805 17.5148C7.00033 17.4948 6.99261 17.4744 6.98549 17.4541C6.984 17.4509 6.98282 17.4473 6.98163 17.4435C6.97362 17.4205 6.9656 17.3967 6.95759 17.3731C6.94898 17.3481 6.94097 17.3227 6.93295 17.2971C6.90921 17.2199 6.88784 17.1419 6.86914 17.062C6.8635 17.0385 6.85815 17.0149 6.85341 16.9907C6.84895 16.9725 6.84539 16.9536 6.84183 16.9348C6.83767 16.9168 6.83441 16.8988 6.83114 16.8803C6.82996 16.8741 6.82877 16.8676 6.82818 16.8611C6.82372 16.8384 6.81957 16.8152 6.8163 16.7922C6.81482 16.7839 6.81363 16.776 6.81245 16.7674C6.80948 16.7492 6.8071 16.7312 6.80473 16.7126C6.80235 16.6947 6.79968 16.6767 6.7979 16.6581C6.79464 16.631 6.79137 16.6034 6.789 16.5757C6.78543 16.5412 6.78247 16.507 6.78039 16.472C6.77712 16.4237 6.77475 16.3748 6.77327 16.3256C6.77267 16.2976 6.77208 16.269 6.77208 16.241C6.77148 16.2407 6.77148 16.2404 6.77208 16.2398C6.77148 16.2395 6.77148 16.2395 6.77208 16.2389C6.77148 16.2387 6.77148 16.2387 6.77208 16.2384C6.77148 16.2322 6.77148 16.2263 6.77148 16.2204C6.77148 16.1992 6.77148 16.1783 6.77237 16.1573C6.77237 16.1347 6.77327 16.1123 6.77386 16.0899C6.77386 16.0878 6.77386 16.0858 6.77445 16.0837C6.77534 16.0613 6.77594 16.0389 6.77712 16.0165C6.7792 15.9794 6.78217 15.942 6.78543 15.9049C6.78692 15.8831 6.789 15.8613 6.79137 15.8395C6.7979 15.7756 6.80621 15.7119 6.8163 15.6486C6.81838 15.6339 6.82076 15.6191 6.82372 15.6041C6.82758 15.5791 6.83203 15.554 6.83738 15.5293C6.84331 15.4966 6.84984 15.4648 6.85697 15.4324C6.86884 15.3788 6.8816 15.3251 6.89615 15.2724C6.90119 15.2544 6.90594 15.2365 6.91128 15.2188C6.91663 15.1982 6.92256 15.1778 6.9288 15.1575C6.93384 15.1419 6.93859 15.126 6.94393 15.1098C6.94957 15.0921 6.95521 15.0747 6.96115 15.0565C6.96649 15.0415 6.97154 15.0261 6.97688 15.0108C6.98133 14.9979 6.98608 14.9846 6.99113 14.9713C7.02556 14.8756 7.06444 14.7819 7.10689 14.69C7.11638 14.6688 7.12648 14.647 7.13686 14.6264C7.14844 14.6025 7.15972 14.5798 7.17159 14.5566C7.18287 14.5345 7.19474 14.5127 7.20632 14.4906C7.23422 14.439 7.26331 14.3878 7.29358 14.3374C7.31525 14.3009 7.33751 14.2652 7.36096 14.2296C7.36274 14.226 7.36541 14.2225 7.36779 14.2187C7.38114 14.1983 7.3948 14.1783 7.40845 14.1583C7.42299 14.1362 7.43843 14.1147 7.45416 14.0932C7.46811 14.0726 7.48295 14.0525 7.49809 14.0325C7.51204 14.0139 7.52658 13.9945 7.54113 13.9762C7.57556 13.9317 7.61088 13.8881 7.64679 13.8457C7.66163 13.8283 7.67677 13.8113 7.69191 13.7942C7.70645 13.7777 7.721 13.7612 7.73584 13.7453C7.7949 13.6805 7.85634 13.618 7.92016 13.5576C7.935 13.5438 7.94984 13.5299 7.96498 13.5164C7.97744 13.5046 7.99021 13.4934 8.00297 13.4819C8.01633 13.4698 8.02968 13.458 8.04274 13.4466C8.1122 13.3865 8.18403 13.329 8.25793 13.2739C8.27842 13.2583 8.29949 13.2433 8.32027 13.2283C8.32412 13.2256 8.32709 13.2233 8.33095 13.2209C8.37072 13.1929 8.41109 13.1652 8.45235 13.1384C8.47253 13.1255 8.49301 13.1128 8.51349 13.0998C8.53546 13.086 8.55742 13.0727 8.57968 13.0595C8.60194 13.0462 8.62421 13.0335 8.64676 13.0206C8.6714 13.0067 8.69574 12.9935 8.72037 12.9799C8.74145 12.9687 8.76252 12.9578 8.78389 12.9469C8.80675 12.9349 8.83019 12.9234 8.85364 12.9122C8.87709 12.901 8.90024 12.8898 8.92429 12.8789C8.94714 12.868 8.97059 12.8577 8.99433 12.8474C9.09406 12.8041 9.19587 12.7649 9.30005 12.7304C9.32113 12.7233 9.3425 12.7163 9.36387 12.7101C9.3888 12.7021 9.41433 12.6945 9.43956 12.6871C9.46508 12.6795 9.49031 12.6724 9.51584 12.6656C9.54522 12.6579 9.57461 12.6503 9.60459 12.6432C9.62507 12.6385 9.64614 12.6335 9.66751 12.6288C9.68532 12.6252 9.70313 12.6211 9.72064 12.6176C9.73964 12.6135 9.75863 12.6096 9.77793 12.6064C9.78356 12.6052 9.7892 12.604 9.79544 12.6032C9.81117 12.5999 9.8269 12.5973 9.84293 12.5943C9.8643 12.5908 9.88597 12.5872 9.90793 12.584C9.93464 12.5796 9.96076 12.5761 9.98748 12.5722C10.0353 12.5663 10.0836 12.5607 10.1326 12.5563C10.1528 12.5543 10.173 12.5528 10.1932 12.5516C10.216 12.5495 10.2389 12.5478 10.262 12.5466C10.2855 12.5454 10.3083 12.5442 10.3318 12.5434C10.3564 12.5422 10.3805 12.5416 10.4051 12.541C10.4297 12.5407 10.455 12.5404 10.4793 12.5404H10.4811C10.5096 12.5404 10.5378 12.5407 10.5666 12.5416C10.5921 12.5419 10.6173 12.5431 10.6428 12.5442C10.663 12.5451 10.6832 12.5463 10.7034 12.5478C10.7283 12.5495 10.753 12.551 10.7776 12.5534C10.7815 12.5534 10.7856 12.554 10.7892 12.5543C10.8002 12.5551 10.8114 12.5563 10.8221 12.5572C10.823 12.5575 10.8242 12.5575 10.8251 12.5575C10.8533 12.5604 10.8812 12.5634 10.9094 12.5666C10.9287 12.569 10.948 12.5716 10.9676 12.5743C10.9907 12.5775 11.0148 12.5811 11.0379 12.5846C11.0848 12.5923 11.1317 12.6002 11.1783 12.6096C11.1795 12.6099 11.181 12.6102 11.1822 12.6105C11.1973 12.6135 11.2124 12.6164 11.2276 12.6196C11.2294 12.6199 11.2311 12.6202 11.2329 12.6208C11.238 12.6217 11.2427 12.6229 11.2478 12.6241C11.2507 12.6247 11.2537 12.6252 11.2567 12.6258C11.2596 12.6264 11.2626 12.627 11.2656 12.6276C11.2679 12.6279 11.2703 12.6288 11.2724 12.6291C11.2822 12.6311 11.2923 12.6335 11.3018 12.6356C11.3116 12.6376 11.3214 12.64 11.3309 12.6423C11.3442 12.6456 11.3576 12.6491 11.3712 12.6523C11.3718 12.6523 11.3721 12.6526 11.3724 12.6526C11.3727 12.6529 11.373 12.6529 11.3736 12.6532C11.3778 12.6541 11.3816 12.6553 11.3858 12.6562C11.3947 12.6585 11.4036 12.6609 11.4125 12.6632C11.4169 12.6647 11.4217 12.6659 11.4261 12.6668C11.4434 12.6712 11.4609 12.6756 11.4781 12.6803C11.5184 12.6912 11.5588 12.703 11.5986 12.7157C11.6179 12.7216 11.6369 12.7278 11.6562 12.7342C11.658 12.7345 11.6594 12.7351 11.6612 12.7357C11.6669 12.7375 11.6728 12.7393 11.6784 12.741C11.6933 12.7457 11.7081 12.7507 11.723 12.7557C11.7532 12.7652 11.7826 12.7764 11.812 12.7873C11.8295 12.7938 11.8476 12.7999 11.8648 12.807C11.8841 12.8141 11.9031 12.8211 11.9224 12.8288C11.9435 12.8373 11.9646 12.8453 11.9853 12.8541C12.0064 12.8624 12.0269 12.8712 12.048 12.8801C12.0684 12.8886 12.0892 12.8977 12.1097 12.9066C12.1302 12.9157 12.151 12.9248 12.1714 12.9343C12.1827 12.9393 12.1937 12.9443 12.2047 12.9496C12.2157 12.9546 12.2267 12.9596 12.2379 12.9646C12.2448 12.9679 12.2516 12.9711 12.2584 12.9746C12.3104 12.9994 12.3623 13.025 12.4133 13.0509C12.4466 13.0683 12.4795 13.0854 12.5122 13.1037C12.5324 13.114 12.5523 13.1249 12.5715 13.1361C12.6054 13.1543 12.6392 13.1732 12.6728 13.1929C12.7556 13.2406 12.8369 13.2901 12.9164 13.3414C12.9334 13.3517 12.9503 13.3626 12.9672 13.3738C13.1135 13.4686 13.2539 13.5679 13.3878 13.6693C13.4255 13.6975 13.462 13.7255 13.4979 13.7541C13.5258 13.7756 13.5531 13.7977 13.5807 13.8192C13.6166 13.8481 13.652 13.8769 13.6867 13.9058C13.738 13.9482 13.7879 13.9907 13.8363 14.0325C13.8369 14.0331 13.8369 14.0331 13.8369 14.0334C13.8428 14.0401 13.8487 14.0469 13.855 14.0543C13.895 14.0832 13.9319 14.1162 13.9651 14.1521L13.9654 14.1524C14.0832 14.2791 14.1574 14.4461 14.1649 14.6302C14.1652 14.6402 14.1654 14.6502 14.1654 14.6603C14.1654 14.7807 14.137 14.8945 14.0862 14.9949C14.0657 15.0359 14.0417 15.0744 14.0144 15.1104C14.0004 15.1289 13.9856 15.1466 13.9698 15.1637C13.8318 15.3151 13.6321 15.41 13.4101 15.41C13.2041 15.41 13.0177 15.3281 12.8811 15.1955C12.8737 15.1911 12.8663 15.187 12.8589 15.1823C12.8532 15.1787 12.8473 15.1749 12.8417 15.1711H12.8414L12.8402 15.1699C12.8179 15.1528 12.7956 15.1351 12.7737 15.1177C12.7672 15.113 12.7606 15.1083 12.7541 15.1033C12.7538 15.103 12.7535 15.103 12.7535 15.1027C12.7315 15.0859 12.7102 15.0694 12.6894 15.0538C12.6461 15.0208 12.6033 14.9893 12.5612 14.959C12.5428 14.9454 12.5247 14.9325 12.5065 14.9195C12.5051 14.9183 12.5033 14.9171 12.5018 14.916C12.4816 14.9012 12.4614 14.8868 12.4412 14.8732C12.4199 14.8585 12.3985 14.8435 12.3774 14.8293C12.359 14.8164 12.3409 14.804 12.3225 14.7925C12.2851 14.7672 12.2483 14.7427 12.2121 14.7195C12.1916 14.7062 12.1714 14.6935 12.1513 14.6812C12.1326 14.6691 12.1142 14.6579 12.0961 14.647C12.0779 14.6355 12.0595 14.6243 12.042 14.614C12.042 14.614 12.042 14.614 12.0414 14.614C12.0233 14.6025 12.0061 14.5922 11.9883 14.5822C11.9705 14.5719 11.9527 14.5619 11.9355 14.5518C11.9007 14.5318 11.8666 14.513 11.8331 14.4947C11.8162 14.4853 11.7995 14.4764 11.7829 14.4679C11.7666 14.4593 11.75 14.4505 11.7336 14.4423C11.7233 14.437 11.7123 14.4314 11.7019 14.4258C11.693 14.4213 11.6841 14.4169 11.6752 14.4125C11.6627 14.4066 11.6508 14.4004 11.6387 14.3945C11.6194 14.3854 11.6004 14.376 11.5817 14.3671C11.5553 14.3548 11.5297 14.343 11.5042 14.3318C11.5036 14.3315 11.503 14.3312 11.5024 14.3309C11.4846 14.323 11.4671 14.3153 11.4496 14.3082C11.441 14.3044 11.4327 14.3009 11.4244 14.2973C11.4184 14.2947 11.4122 14.292 11.4063 14.2897C11.3816 14.2791 11.3576 14.2696 11.3335 14.2605C11.3199 14.2549 11.3065 14.2496 11.2938 14.2452C11.2715 14.2363 11.2501 14.2284 11.2288 14.221C11.1997 14.2107 11.1712 14.2013 11.1436 14.1924C11.1293 14.1871 11.1136 14.1824 11.097 14.178C11.0703 14.1692 11.0424 14.1615 11.0159 14.1547C10.6612 14.0581 10.4793 14.0876 10.4793 14.0876C9.77704 14.0876 9.15224 14.424 8.76015 14.9431C8.74679 14.9601 8.73432 14.9775 8.72186 14.9952C8.72156 14.9952 8.72156 14.9952 8.72186 14.9955C8.4755 15.3422 8.33095 15.765 8.33095 16.2204C8.33095 16.3851 8.34995 16.5456 8.38586 16.7C8.39417 16.7362 8.40367 16.7722 8.41376 16.8075C8.56514 17.3301 8.91271 17.7714 9.37218 18.0465C9.3888 18.0568 9.40602 18.0666 9.42323 18.0763C9.73518 18.2519 10.0958 18.3523 10.4793 18.3523C10.4793 18.3523 10.5176 18.3538 10.5888 18.3494H10.5915C10.6135 18.3485 10.6351 18.347 10.6568 18.3452C10.6791 18.3432 10.701 18.3411 10.7227 18.3388C10.7586 18.3346 10.7939 18.3296 10.8287 18.3237C10.8319 18.3234 10.8349 18.3226 10.8379 18.3223C10.8907 18.314 10.9486 18.3037 11.0112 18.2905C11.0112 18.2905 11.0112 18.2905 11.0115 18.2905C11.4098 18.2068 11.9954 18.0091 12.6449 17.546C12.6624 17.534 12.6796 17.5213 12.6971 17.5086C12.7449 17.4736 12.7933 17.4373 12.8417 17.3993C13.2207 17.0491 13.6077 16.6387 14.0058 16.2083C14.0245 16.1877 14.0435 16.1674 14.0628 16.1467C14.0832 16.1241 14.104 16.1017 14.1248 16.079C14.1438 16.0584 14.1628 16.0377 14.1818 16.0171C14.6748 15.4816 15.1844 14.9251 15.7145 14.4222C15.7306 14.4069 15.7466 14.3916 15.7629 14.3766C16.1654 13.998 16.5797 13.6519 17.008 13.3708C17.025 13.3597 17.0419 13.3485 17.0588 13.3379C17.2779 13.1967 17.5008 13.073 17.7272 12.9714C17.7453 12.9628 17.7634 12.9549 17.7815 12.9472C17.7833 12.9463 17.7848 12.9455 17.7866 12.9449C17.8026 12.9375 17.8189 12.9301 17.8353 12.9231C17.851 12.9154 17.8676 12.9086 17.8837 12.9013C17.9059 12.8918 17.9285 12.8821 17.951 12.873C17.9869 12.8577 18.0229 12.8429 18.0594 12.8288C18.0825 12.8197 18.106 12.8108 18.1297 12.802C18.1499 12.7943 18.1707 12.787 18.1909 12.7796C18.2093 12.7725 18.228 12.7661 18.2467 12.7596C18.2511 12.7581 18.2553 12.7569 18.26 12.7557C18.2645 12.754 18.2689 12.7528 18.2734 12.7513C18.2838 12.7472 18.2947 12.7437 18.3054 12.7404C18.3339 12.7307 18.3624 12.7219 18.3912 12.7133C18.4138 12.7063 18.4363 12.6995 18.4589 12.6933C18.4693 12.6904 18.48 12.6871 18.4903 12.6845C18.5197 12.6762 18.5491 12.6683 18.5788 12.6606C18.5981 12.6553 18.6174 12.6506 18.6367 12.6459C18.6557 12.6414 18.6747 12.637 18.6937 12.6326C18.753 12.6191 18.813 12.607 18.8732 12.5967C18.894 12.5928 18.9151 12.589 18.9362 12.5858C18.9635 12.5816 18.9905 12.5775 19.0181 12.574C19.04 12.5707 19.0626 12.5678 19.0849 12.5652C19.1059 12.5628 19.1264 12.5604 19.1475 12.5584C19.1502 12.5578 19.1534 12.5578 19.1564 12.5575C19.271 12.5463 19.3861 12.5404 19.5019 12.5404C19.539 12.5404 19.5758 12.5407 19.6126 12.5419C19.639 12.5428 19.6654 12.5434 19.6916 12.5451H19.6942C19.7254 12.5466 19.7566 12.5487 19.7874 12.551C19.8284 12.5543 19.8685 12.5578 19.9085 12.5622C19.9284 12.5643 19.9477 12.5666 19.9673 12.569C19.9723 12.5696 19.9771 12.5702 19.9815 12.5707C20.0071 12.574 20.0323 12.5775 20.0578 12.5816C20.0629 12.5822 20.0682 12.5828 20.073 12.584C20.1018 12.5878 20.1302 12.5928 20.1584 12.5979C20.1929 12.604 20.2267 12.6102 20.2603 12.6176C20.2807 12.6214 20.3015 12.6258 20.3214 12.6303C20.3392 12.6344 20.3567 12.6385 20.3739 12.6426C20.3965 12.6479 20.419 12.6535 20.4416 12.6597C20.4885 12.6715 20.5354 12.6848 20.5814 12.6989C20.6028 12.7051 20.6236 12.7116 20.6446 12.7183C20.6482 12.7195 20.6518 12.7207 20.655 12.7219C20.6737 12.7281 20.6921 12.7339 20.7102 12.7404C20.7809 12.764 20.8503 12.7905 20.9186 12.8185C20.9349 12.8253 20.9515 12.832 20.9676 12.8388C20.9782 12.8432 20.9889 12.8482 20.9996 12.853C21.0148 12.8594 21.0302 12.8662 21.045 12.8733C21.0809 12.8892 21.116 12.9063 21.1513 12.9234C21.1673 12.9313 21.1839 12.9399 21.2 12.9481C21.2181 12.957 21.2359 12.9667 21.2537 12.9761C21.2852 12.9926 21.3166 13.01 21.3475 13.0279C21.3709 13.0412 21.3944 13.0548 21.4175 13.0686C21.4211 13.0707 21.4247 13.073 21.4282 13.0754C21.4496 13.088 21.4707 13.101 21.4911 13.1143C21.5211 13.1331 21.5508 13.1523 21.5802 13.1723C21.6033 13.1876 21.6259 13.2032 21.6485 13.2191C21.6493 13.2197 21.6502 13.2203 21.6508 13.2209C21.701 13.256 21.7497 13.2925 21.7978 13.3302C21.8191 13.3464 21.8402 13.3632 21.8607 13.3806C21.8803 13.3965 21.8999 13.413 21.9192 13.4295C21.9304 13.4389 21.9414 13.4486 21.9521 13.4578C21.9714 13.4745 21.9907 13.4919 22.0097 13.5093C22.0248 13.5229 22.0397 13.5367 22.0542 13.5508C22.1023 13.5956 22.1492 13.6425 22.1946 13.6899C22.2112 13.7073 22.2278 13.7246 22.2439 13.7423C22.3418 13.849 22.4338 13.9618 22.5184 14.0793C22.5309 14.0967 22.5436 14.1144 22.5555 14.1318C22.5621 14.1412 22.5686 14.1506 22.5745 14.16C22.5813 14.1692 22.5876 14.1786 22.5938 14.188C22.5989 14.1957 22.6042 14.2034 22.6089 14.2113C22.6321 14.2455 22.6541 14.2805 22.6754 14.3159C22.6929 14.3439 22.7099 14.3721 22.7262 14.401C22.7318 14.411 22.7378 14.4211 22.7431 14.4311C22.7499 14.4426 22.7562 14.454 22.7624 14.4658C22.7707 14.4803 22.7784 14.4947 22.7859 14.5091C22.7915 14.5194 22.7968 14.5295 22.8022 14.5398C22.8037 14.5427 22.8051 14.546 22.8066 14.5489C22.8271 14.5893 22.8476 14.6296 22.8666 14.6706C22.8684 14.6747 22.8701 14.6788 22.8722 14.6826C22.8785 14.6968 22.885 14.7109 22.8912 14.7248C22.9123 14.7716 22.9325 14.819 22.9515 14.8671C22.9577 14.8833 22.9639 14.8992 22.9702 14.9154C22.9714 14.9186 22.9725 14.9216 22.9737 14.9248C22.9815 14.9448 22.9892 14.9654 22.9963 14.9858C22.9978 14.9893 22.999 14.9925 23.0002 14.9961C23.0085 15.0194 23.0165 15.0429 23.0242 15.0665C23.0284 15.0792 23.0328 15.0918 23.037 15.1045C23.0408 15.1172 23.045 15.1298 23.0488 15.1428C23.0592 15.177 23.0693 15.2114 23.0788 15.2459C23.083 15.2609 23.0871 15.2762 23.091 15.2916C23.0987 15.3201 23.1058 15.3487 23.1126 15.3776C23.1156 15.3894 23.1183 15.4011 23.121 15.4132C23.1233 15.425 23.126 15.4368 23.1284 15.4489C23.1296 15.453 23.1305 15.4568 23.131 15.4612C23.1343 15.4757 23.1373 15.4904 23.14 15.5054C23.1441 15.5234 23.1474 15.5414 23.1506 15.5593C23.1518 15.5658 23.153 15.5723 23.1536 15.5785C23.1581 15.6015 23.1622 15.6247 23.1655 15.6474C23.167 15.6554 23.1681 15.6639 23.1693 15.6722C23.1732 15.696 23.1765 15.7199 23.1794 15.7435C23.18 15.747 23.1803 15.7508 23.1809 15.7546C23.1836 15.7767 23.1866 15.7991 23.1889 15.8212C23.1901 15.8321 23.1907 15.8427 23.1922 15.8536C23.2005 15.9396 23.2061 16.0266 23.2085 16.1143C23.2094 16.1423 23.2097 16.1706 23.2097 16.1986C23.2103 16.1992 23.2097 16.1995 23.2097 16.1995V16.1998C23.2103 16.2004 23.2103 16.2004 23.2097 16.2007C23.2103 16.2009 23.2103 16.2009 23.2097 16.2015C23.2103 16.2054 23.2103 16.2098 23.2103 16.2139Z" fill="black"></path>
</svg></svg></g></svg></g></svg>